<svg xmlns="http://www.w3.org/2000/svg" width="51.297" height="58.625" viewBox="0 0 51.297 58.625">
  <path id="Path_23073" data-name="Path 23073" d="M-140.793,942.666v34.809a9.161,9.161,0,0,1-9.16,9.16H-182.93a9.161,9.161,0,0,1-9.16-9.16V942.666H-181.1a14.673,14.673,0,0,1,14.657-14.656,14.672,14.672,0,0,1,14.656,14.656Zm-5.5,5.5h-5.5v4.58a2.748,2.748,0,0,1-2.748,2.748,2.748,2.748,0,0,1-2.748-2.748v-4.58H-175.6v4.58a2.748,2.748,0,0,1-2.748,2.748,2.748,2.748,0,0,1-2.748-2.748v-4.58h-5.5v29.313a3.669,3.669,0,0,0,3.664,3.664h32.977a3.669,3.669,0,0,0,3.664-3.664Zm-29.313-5.5h18.321a9.171,9.171,0,0,0-9.16-9.16A9.171,9.171,0,0,0-175.6,942.666Z" transform="translate(192.09 -928.01)" fill="#282c3f"/>
</svg>
