<svg xmlns="http://www.w3.org/2000/svg" width="58.625" height="51.296" viewBox="0 0 58.625 51.296">
  <path id="Path_23099" data-name="Path 23099" d="M-412.224,1231.762a2.749,2.749,0,0,1-2.748,2.748h-11.6a2.748,2.748,0,0,1-2.748-2.748v-9.16a2.748,2.748,0,0,1,2.748-2.748h11.6a2.748,2.748,0,0,1,2.748,2.748Zm0,9.16v9.16a2.748,2.748,0,0,1-2.748,2.748h-11.6a2.748,2.748,0,0,1-2.748-2.748v-9.16a2.748,2.748,0,0,1,2.748-2.748h11.6A2.748,2.748,0,0,1-412.224,1240.922Zm-14.351,15.572h11.6a2.749,2.749,0,0,1,2.748,2.748v9.16a2.748,2.748,0,0,1-2.748,2.748h-11.6a2.748,2.748,0,0,1-2.748-2.748v-9.16A2.748,2.748,0,0,1-426.575,1256.494Zm32.366-21.984h-11.6a2.748,2.748,0,0,1-2.748-2.748v-9.16a2.748,2.748,0,0,1,2.748-2.748h11.6a2.748,2.748,0,0,1,2.748,2.748v9.16A2.748,2.748,0,0,1-394.209,1234.51Zm0,18.32h-11.6a2.748,2.748,0,0,1-2.748-2.748v-9.16a2.748,2.748,0,0,1,2.748-2.748h11.6a2.748,2.748,0,0,1,2.748,2.748v9.16A2.748,2.748,0,0,1-394.209,1252.83Zm-11.6,3.664h11.6a2.749,2.749,0,0,1,2.748,2.748v9.16a2.748,2.748,0,0,1-2.748,2.748h-11.6a2.748,2.748,0,0,1-2.748-2.748v-9.16A2.748,2.748,0,0,1-405.812,1256.494Zm20.763-36.64h11.6a2.748,2.748,0,0,1,2.748,2.748v9.16a2.749,2.749,0,0,1-2.748,2.748h-11.6a2.748,2.748,0,0,1-2.748-2.748v-9.16A2.748,2.748,0,0,1-385.049,1219.854Zm-2.748,30.228v-9.16a2.748,2.748,0,0,1,2.748-2.748h11.6a2.748,2.748,0,0,1,2.748,2.748v9.16a2.748,2.748,0,0,1-2.748,2.748h-11.6A2.748,2.748,0,0,1-387.8,1250.082Zm0,18.32v-9.16a2.748,2.748,0,0,1,2.748-2.748h11.6a2.749,2.749,0,0,1,2.748,2.748v9.16a2.748,2.748,0,0,1-2.748,2.748h-11.6A2.748,2.748,0,0,1-387.8,1268.4Z" transform="translate(429.323 -1219.854)" fill="#282c3f"/>
</svg>
