<svg xmlns="http://www.w3.org/2000/svg" width="62.001" height="62" viewBox="0 0 62.001 62">
  <g id="Group_21062" data-name="Group 21062" transform="translate(-560.999 -822)">
    <g id="Rectangle_11250" data-name="Rectangle 11250" transform="translate(561 822)" fill="none" stroke="#fff" stroke-width="1" opacity="0">
      <rect width="62" height="62" stroke="none"/>
      <rect x="0.5" y="0.5" width="61" height="61" fill="none"/>
    </g>
    <path id="Path_23019" data-name="Path 23019" d="M828,131.441c-.746,1.753-2.339,1.254-3.754,1.346v.751q0,7.6,0,15.2c0,1.533-.672,2.2-2.217,2.2H809.716v19.854c0,1.5-.681,2.183-2.175,2.183h-9.112c-.065.2-.133.383-.184.571a9.042,9.042,0,0,1-8.644,6.686c-7.2.023-14.408.009-21.611.006a1.823,1.823,0,1,1,.022-3.629c7.123,0,14.246.012,21.369-.008a5.318,5.318,0,0,0,5.117-3.308c.032-.07.051-.146.1-.286-.246-.011-.456-.029-.665-.029q-8.324,0-16.648,0a3.447,3.447,0,0,1-.781-.053,1.806,1.806,0,0,1,.375-3.57c1.756-.021,3.511,0,5.267-.011a1.81,1.81,0,0,0,1.758-2.495,1.609,1.609,0,0,0-1.467-1.106c-2.555,0-5.129-.25-7.654.38a14.867,14.867,0,0,0-5.6,2.742,1.813,1.813,0,0,1-2.987-.891,1.735,1.735,0,0,1,.657-1.885,17.955,17.955,0,0,1,9.424-3.9c.2-.021.393-.052.632-.084v-.754q0-9.505,0-19.009c0-1.5.68-2.179,2.176-2.179h10.659V127.79c0-1.635.639-2.283,2.254-2.283,3.269,0,6.538.009,9.807-.015a1.479,1.479,0,0,0,.9-.339,26.464,26.464,0,0,1,15.752-6.812,3.813,3.813,0,0,0,.468-.1h7.748A2.779,2.779,0,0,1,828,119.575v.968a2.281,2.281,0,0,1-2.44,1.348c-1.672-.062-3.349-.019-5.024-.015a22.267,22.267,0,0,0-8.66,1.718c-1.206.507-2.357,1.149-3.533,1.729l.071.183H809c2.038,0,4.076,0,6.114,0a1.762,1.762,0,0,1,1.635.96,1.669,1.669,0,0,1-.113,1.88q-.294.421-.6.833-1.323,1.768-2.65,3.534a1.533,1.533,0,0,0-.342,1.412,1.413,1.413,0,0,0,1.126,1.061,1.491,1.491,0,0,0,1.577-.662c1.047-1.433,2.12-2.847,3.138-4.3a2.322,2.322,0,0,1,2.137-1.1c1.512.044,3.028.059,4.539,0A2.275,2.275,0,0,1,828,130.472ZM798.818,143.8v.7q0,4.025,0,8.052a1.871,1.871,0,0,1-2.1,2.133q-3.361,0-6.72,0a1.861,1.861,0,0,1-2.075-2.1q0-4.056,0-8.111v-.641h-7.356v18.258c2.067-.145,4.038.013,5.552,1.625a5.488,5.488,0,0,1,1.3,5.584h18.625V143.8Zm10.909-12.156,1.73-2.465h-18.04v10.941h6.565A7.263,7.263,0,0,1,809.728,131.649Zm4.489,7.264a1.524,1.524,0,0,0-.062.216,7.18,7.18,0,0,1-4.164,5.77.505.505,0,0,0-.262.338c-.025.677-.012,1.355-.012,2.016h10.863V134.079c-.684.931-1.293,1.747-1.889,2.571a5.061,5.061,0,0,1-2.912,2.036A15.044,15.044,0,0,1,814.217,138.913Zm-4.816,2.012a3.5,3.5,0,0,0,.427-4.747,3.556,3.556,0,0,0-6.072,3.62.8.8,0,0,0,.588.344c1.048.034,2.1.039,3.146.008A2.18,2.18,0,0,1,809.4,140.925Zm-17.8,2.893v7.189h3.556v-7.189Z" transform="translate(-205.008 703.758)" fill="#282c3f"/>
  </g>
</svg>
