<svg xmlns="http://www.w3.org/2000/svg" width="51.297" height="58.625" viewBox="0 0 51.297 58.625">
  <path id="Path_23090" data-name="Path 23090" d="M7.593,1051.979a3.668,3.668,0,0,1-3.676,3.664H-40.028a3.668,3.668,0,0,1-3.676-3.664,3.579,3.579,0,0,1,.986-2.487c2.212-2.377,6.351-5.952,6.351-17.666a18.083,18.083,0,0,1,14.649-17.766v-2.386a3.663,3.663,0,0,1,3.662-3.664,3.662,3.662,0,0,1,3.662,3.664v2.386a18.083,18.083,0,0,1,14.65,17.766c0,11.714,4.139,15.289,6.35,17.666A3.574,3.574,0,0,1,7.593,1051.979Zm-7.733-1.833c-2.429-3.2-5.086-8.509-5.1-18.253,0-.023.007-.044.007-.067A12.824,12.824,0,0,0-18.056,1019a12.823,12.823,0,0,0-12.824,12.824c0,.023.007.044.007.067-.013,9.743-2.669,15.051-5.1,18.253Zm-25.24,9.161h14.649a7.328,7.328,0,0,1-7.325,7.328A7.327,7.327,0,0,1-25.38,1059.307Z" transform="translate(43.704 -1008.01)" fill="#282c3f"/>
</svg>
