<svg xmlns="http://www.w3.org/2000/svg" width="58.625" height="43.969" viewBox="0 0 58.625 43.969">
  <path id="Path_23094" data-name="Path 23094" d="M333.674,1020.834v32.977a5.5,5.5,0,0,1-5.5,5.5H280.545a5.5,5.5,0,0,1-5.5-5.5v-32.977a5.5,5.5,0,0,1,5.5-5.5h47.633A5.5,5.5,0,0,1,333.674,1020.834Zm-53.129,0v4.672c2.567,2.092,6.662,5.343,15.41,12.193,1.928,1.517,5.749,5.162,8.406,5.119,2.659.042,6.478-3.6,8.407-5.119,8.75-6.851,12.842-10.1,15.41-12.193v-4.672Zm47.633,32.977v-21.252c-2.624,2.089-6.346,5.023-12.017,9.463-2.581,2.033-6.908,6.319-11.8,6.292-4.915.027-9.3-4.322-11.8-6.293-5.671-4.44-9.392-7.373-12.016-9.462v21.252Z" transform="translate(-275.049 -1015.338)" fill="#282c3f"/>
</svg>
