<svg xmlns="http://www.w3.org/2000/svg" width="58.625" height="51.31" viewBox="0 0 58.625 51.31">
  <path id="Path_23072" data-name="Path 23072" d="M-219.909,960.712l-20.083,20.461a5.975,5.975,0,0,1-4.306,1.809,6.007,6.007,0,0,1-4.306-1.821L-268.687,960.7c-6.137-6.263-7.4-18.08,1.214-25.328,6.619-5.576,16.843-4.728,23.175,1.718,6.332-6.446,16.557-7.282,23.175-1.718C-212.5,942.632-213.783,954.448-219.909,960.712Zm-4.752-21.138c-4.431-3.732-11.3-3.194-15.629,1.214l-4.008,4.088-4.008-4.088c-4.3-4.386-11.174-4.946-15.629-1.2a11.809,11.809,0,0,0-.836,17.256l20.083,20.461a.472.472,0,0,0,.78,0l20.083-20.461A11.86,11.86,0,0,0-224.661,939.574Z" transform="translate(273.611 -931.672)" fill="#282c3f"/>
</svg>
