<svg xmlns="http://www.w3.org/2000/svg" width="58.625" height="58.625" viewBox="0 0 58.625 58.625">
  <path id="Path_23076" data-name="Path 23076" d="M52.475,951.083v30.056a5.5,5.5,0,0,1-5.5,5.5H-.654a5.5,5.5,0,0,1-5.5-5.5V951.08a5.479,5.479,0,0,1,2.005-4.245c.467-.384,12.674-10.2,15.475-12.429,2.6-2.078,6.885-6.4,11.832-6.4,4.974,0,9.3,4.373,11.832,6.4,2.694,2.142,14.948,12,15.486,12.441A5.479,5.479,0,0,1,52.475,951.083Zm-5.5.327a.684.684,0,0,0-.255-.534c-1.817-1.468-12.457-10.027-15.157-12.173-2.009-1.6-5.692-5.2-8.4-5.2s-6.325,3.536-8.405,5.2c-2.7,2.146-13.339,10.7-15.156,12.171a.683.683,0,0,0-.255.534v29.043a.687.687,0,0,0,.686.688h46.26a.688.688,0,0,0,.687-.688ZM43.115,960.9c-3.317,2.666-6.786,5.451-8.121,6.511-2.6,2.078-6.885,6.4-11.832,6.4-4.975,0-9.308-4.378-11.832-6.4-1.292-1.026-4.78-3.825-8.121-6.511a1.373,1.373,0,0,1-.2-1.944l1.747-2.121a1.374,1.374,0,0,1,1.922-.2c3.276,2.633,6.705,5.385,8.079,6.477,2.01,1.606,5.692,5.2,8.405,5.2s6.326-3.536,8.4-5.2c1.374-1.092,4.8-3.844,8.08-6.476a1.373,1.373,0,0,1,1.921.2l1.747,2.121A1.373,1.373,0,0,1,43.115,960.9Z" transform="translate(6.15 -928.01)" fill="#282c3f"/>
</svg>
