<svg xmlns="http://www.w3.org/2000/svg" width="51.297" height="58.625" viewBox="0 0 51.297 58.625">
  <path id="Path_23085" data-name="Path 23085" d="M-378.026,1035.49v25.649a5.5,5.5,0,0,1-5.5,5.5h-40.3a5.5,5.5,0,0,1-5.5-5.5V1035.49a5.5,5.5,0,0,1,5.5-5.5h3.664v-5.5a16.51,16.51,0,0,1,16.534-16.488,16.59,16.59,0,0,1,16.442,16.648v5.336h3.665A5.5,5.5,0,0,1-378.026,1035.49Zm-5.5,0h-40.3v25.649h40.3Zm-31.145-5.5h21.984v-5.5a11.009,11.009,0,0,0-10.992-10.992,11.009,11.009,0,0,0-10.992,10.992Z" transform="translate(429.323 -1008.01)" fill="#282c3f"/>
</svg>
