<svg xmlns="http://www.w3.org/2000/svg" width="51.297" height="58.625" viewBox="0 0 51.297 58.625">
  <path id="Path_23071" data-name="Path 23071" d="M-296.506,978.207v2.932a5.5,5.5,0,0,1-5.5,5.5h-40.3a5.5,5.5,0,0,1-5.5-5.5v-2.932a15.393,15.393,0,0,1,15.389-15.389c3.3,0,4.867,1.832,10.26,1.832s6.973-1.832,10.259-1.832A15.392,15.392,0,0,1-296.506,978.207Zm-5.5,0a9.91,9.91,0,0,0-9.893-9.893c-1.683,0-4.339,1.832-10.259,1.832-5.874,0-8.588-1.832-10.26-1.832a9.911,9.911,0,0,0-9.893,9.893v2.932H-302ZM-338.643,944.5a16.493,16.493,0,0,1,16.489-16.488A16.493,16.493,0,0,1-305.666,944.5a16.493,16.493,0,0,1-16.488,16.488A16.493,16.493,0,0,1-338.643,944.5Zm5.5,0a11.009,11.009,0,0,0,10.992,10.992A11.009,11.009,0,0,0-311.162,944.5a11.009,11.009,0,0,0-10.992-10.992A11.009,11.009,0,0,0-333.146,944.5Z" transform="translate(347.803 -928.01)" fill="#282c3f"/>
</svg>
