<svg xmlns="http://www.w3.org/2000/svg" width="58.628" height="58.627" viewBox="0 0 58.628 58.627">
  <path id="Path_23070" data-name="Path 23070" d="M-371.1,983.646l-2.588,2.588a1.375,1.375,0,0,1-1.946,0l-13.9-13.9a1.405,1.405,0,0,1-.4-.973v-1.511a23.75,23.75,0,0,1-15.572,5.794,23.813,23.813,0,0,1-23.816-23.817,23.812,23.812,0,0,1,23.816-23.816,23.813,23.813,0,0,1,23.817,23.816,23.75,23.75,0,0,1-5.794,15.572h1.511a1.358,1.358,0,0,1,.973.4l13.9,13.9A1.375,1.375,0,0,1-371.1,983.646Zm-16.088-31.82a18.315,18.315,0,0,0-18.32-18.32,18.315,18.315,0,0,0-18.32,18.32,18.315,18.315,0,0,0,18.32,18.32A18.315,18.315,0,0,0-387.187,951.826Z" transform="translate(429.323 -928.01)" fill="#282c3f"/>
</svg>
