<svg xmlns="http://www.w3.org/2000/svg" xmlns:xlink="http://www.w3.org/1999/xlink" width="186" height="186" viewBox="0 0 186 186">
  <defs>
    <clipPath id="clip-path">
      <circle id="Ellipse_15" data-name="Ellipse 15" cx="93" cy="93" r="93" fill="#c2c2c2"/>
    </clipPath>
  </defs>
  <g id="Group_21019" data-name="Group 21019" transform="translate(-1045 -110)">
    <circle id="Ellipse_14" data-name="Ellipse 14" cx="93" cy="93" r="93" transform="translate(1045 110)" fill="#c2c2c2"/>
    <g id="Mask_Group_67" data-name="Mask Group 67" transform="translate(1045 110)" clip-path="url(#clip-path)">
      <path id="Path_23068" data-name="Path 23068" d="M1101,775.824c3.709-1.99,7.4-4.012,11.133-5.96,4.194-2.189,8.419-4.316,12.636-6.458a12.552,12.552,0,0,0,5.246-5.438,35.9,35.9,0,0,0,3.937-12.986,85.883,85.883,0,0,0,.628-8.833,6.062,6.062,0,0,0-.889-3.124,35.4,35.4,0,0,1-5.408-17.277c-.037-.9-.2-1.39-1.285-1.505-1.893-.2-2.679-1.827-3.148-3.327a55.539,55.539,0,0,1-3-16.014c0-.336.011-.672.04-1.007.24-2.854.8-3.511,3.683-4.239-.245-6.038-.493-12.1-.743-18.25a6.034,6.034,0,0,1-1.837-.589,3.133,3.133,0,0,1-1.35-1.689c-1.307-9.777,1.73-18.195,8.254-25.433,6.007-6.666,13.7-10.086,22.445-11.329a38.459,38.459,0,0,1,22.308,3.252c2.676,1.268,5.16,2.943,7.748,4.4a2.683,2.683,0,0,0,1.236.337c5.638.064,9.259,3,11.3,8.044a30.874,30.874,0,0,1,2.455,12.7c-.295,8.363-.842,16.718-1.268,25.077-.053,1.047-.007,2.1-.007,3.126,3.734.494,4.587,1.539,4.707,5.234a41.063,41.063,0,0,1-3.2,16.764,4.845,4.845,0,0,1-3.052,3.1,2.3,2.3,0,0,0-1.173,1.562,60.057,60.057,0,0,1-4.755,14.7,8.562,8.562,0,0,1-2.151,2.889,2.817,2.817,0,0,0-1.135,2.755c.536,4.7.77,9.458,1.76,14.057a41.656,41.656,0,0,0,3.762,9.342c1.3,2.644,4.141,3.645,6.563,4.921,6.969,3.673,14.031,7.172,21.05,10.749a2.44,2.44,0,0,1,.489.453Z" transform="translate(-1066.322 -583.277)" fill="#fff"/>
    </g>
  </g>
</svg>
