<svg xmlns="http://www.w3.org/2000/svg" width="355" height="125.801" viewBox="0 0 355 125.801">
  <g id="Candle_Store_Logo" data-name="Candle Store Logo" transform="translate(-296.564 -275.504)">
    <g id="Group_2" data-name="Group 2" transform="translate(321.443 311.562)">
      <g id="Group_1" data-name="Group 1" transform="translate(0 0)">
        <path id="Path_1" data-name="Path 1" d="M392.374,382.448a29.121,29.121,0,0,1-14.023,11.535,28.636,28.636,0,0,1-20.6,0,29.526,29.526,0,0,1,1.526-55.46,28.622,28.622,0,0,1,17.552,0,29,29,0,0,1,15.288,11.664,6.071,6.071,0,0,1-5.235-1c-3.512-3.251-4.337-8.673-13.773-10.66a26.552,26.552,0,0,0-7.679,0c-10.979,1.2-19.9,14.4-19.9,28.558,0,13.875,10.382,25.041,19.123,26.9a26.437,26.437,0,0,0,9.234,0c7.271-1.278,10.486-6.377,12.563-11.628Z" transform="translate(-339.095 -337.144)" fill="#c58675"/>
        <path id="Path_2" data-name="Path 2" d="M480.669,395.276l-5.1-.068-6.105-17.34-.992-2.839-.205-.6-.75-2.117a12.311,12.311,0,0,1-7.474,3.54,25.467,25.467,0,0,1-4.584-.359,13.605,13.605,0,0,0-6.382.087,9.292,9.292,0,0,0-5.372,4.5l-4.9,15.123h-1.334l18.263-56.381-.1-.291H460.7Zm-13.313-23.4-.03-.087L456.415,340.8l-10.072,31.123-.821,2.514-.188.6-.872,2.719-.354,1.092a9.366,9.366,0,0,1,4.729-4.788,14,14,0,0,1,6.637-.111,25.213,25.213,0,0,0,4.487.354A13.658,13.658,0,0,0,467.356,371.872Z" transform="translate(-379.925 -337.722)" fill="#c58675"/>
        <path id="Path_3" data-name="Path 3" d="M571.554,338.539l-.021,56.8h-2.6l0-.2-38.546-54.618-.019,54.733-5.2.022.017-56.733h5.122l.085.111,38.282,54.264V338.539Z" transform="translate(-416.321 -337.723)" fill="#c58675"/>
        <path id="Path_4" data-name="Path 4" d="M680.029,368.459q0,.532-.017,1.057a27.063,27.063,0,0,1-27.334,25.679l-20.964.1-5.118.046.02-56.689h5.119l16.534.022c9.487.012,18.833,3.408,24.775,10.7A31.614,31.614,0,0,1,680.029,368.459Zm-27.09-28.264c-4.158-.5-14.6-.581-19.3-.581a1.9,1.9,0,0,0-1.905,1.912V391.94a2.154,2.154,0,0,0,2.153,2.154h5.936c9.535,0,15.438-1.013,20.692-5.043,9.988-7.665,14.555-17.277,15.1-26.838C676.517,346.674,663.26,341.435,652.939,340.195Z" transform="translate(-458.417 -337.772)" fill="#c58675"/>
        <path id="Path_5" data-name="Path 5" d="M767.67,390.624v4.653h-27.3v.016l-5.13.05.016-56.8h5.121l-.062,55.992s8.843.04,11.79,0A45.5,45.5,0,0,0,767.67,390.624Z" transform="translate(-503.51 -337.723)" fill="#c58675"/>
        <path id="Path_6" data-name="Path 6" d="M837.027,341.5H810.4a1.889,1.889,0,0,0-1.88,1.881v48.7a2.084,2.084,0,0,0,2.084,2.084h26.423v1.813l-33.655.052.034-55.646h33.621ZM809.2,367h16.758v3.984a40.069,40.069,0,0,0-8.379-2.748C814.708,367.583,809.2,367,809.2,367Z" transform="translate(-531.785 -338.486)" fill="#c58675"/>
      </g>
    </g>
    <g id="Group_4" data-name="Group 4" transform="translate(417.126 386.142)">
      <g id="Group_3" data-name="Group 3" transform="translate(0 0)">
        <path id="Path_7" data-name="Path 7" d="M515.2,475.849c-.2,2.249-2.912,4.005-6.363,3.909s-5.812-2.031-6.129-4.266c-.3-2.132,1.082-2.318,1.741.122a5.148,5.148,0,0,0,4.377,3.929c3.147.269,5.627-1.445,5.686-3.554.05-1.754-1.632-2.506-4.027-3.021-.274-.06-3.115-.715-3.569-.821-2.652-.621-4.045-2.346-4-3.919a2.49,2.49,0,0,1,.675-1.58,4.184,4.184,0,0,1,.749-.652,7.173,7.173,0,0,1,4.528-1.247c3.188.093,5.776,1.56,6.106,3.371,0,0-.795.541-2.176-.665s-2.267-2.239-4.658-2.417a5.72,5.72,0,0,0-3.717,1.006,1.888,1.888,0,0,0-.942,1.473,1.968,1.968,0,0,0-.023.26c-.059,2.013,1.792,2.309,8.306,3.738A4,4,0,0,1,515.2,475.849Z" transform="translate(-502.664 -464.679)" fill="#c58675"/>
        <path id="Path_8" data-name="Path 8" d="M556.2,464.958l-.006.291h-4.425v14.4l-1.355.028,0-14.432H546.08v-.291Z" transform="translate(-520.683 -464.771)" fill="#c58675"/>
        <path id="Path_9" data-name="Path 9" d="M599.81,472.22a7.881,7.881,0,1,1-7.874-7.581A7.734,7.734,0,0,1,599.81,472.22Zm-1.668,0c0-4.186-1.977-7.513-6.038-7.513s-6.36,3.194-6.36,7.382,2.332,7.381,6.392,7.381S598.142,476.406,598.142,472.221Z" transform="translate(-536.446 -464.639)" fill="#c58675"/>
        <path id="Path_10" data-name="Path 10" d="M648.666,479.645l-.99.008-4.06-6.623a18.647,18.647,0,0,0-2.71.056,4.132,4.132,0,0,0-2.487,1.6v4.94l-1.332.015,0-14.716h5.785a6.837,6.837,0,0,1,2.089.321,4.547,4.547,0,0,1,2.884,4.5,3.609,3.609,0,0,1-3.249,3.287Zm-2.168-9.79c1.044-4.594-1.988-4.709-3.667-4.757-.271-.008-.86.01-1.14,0l-2.894,0a.377.377,0,0,0-.377.377v8.977a5.068,5.068,0,0,1,2.438-1.711C642.917,472.256,645.785,472.991,646.5,469.855Z" transform="translate(-558.454 -464.759)" fill="#c58675"/>
        <path id="Path_11" data-name="Path 11" d="M691.142,465.726h-6.906a.49.49,0,0,0-.488.488v12.631a.54.54,0,0,0,.541.541h6.854v.47l-8.73.013.009-14.434h8.721Zm-7.218,6.616h4.347v1.034a10.391,10.391,0,0,0-2.173-.713C685.353,472.492,683.923,472.342,683.923,472.342Z" transform="translate(-577.265 -464.97)" fill="#c58675"/>
      </g>
    </g>
    <g id="Group_6" data-name="Group 6" transform="translate(437.728 275.504)">
      <g id="Group_5" data-name="Group 5" transform="translate(0 0)">
        <path id="Path_12" data-name="Path 12" d="M554.756,275.506l-.01.485H547.37V300l-2.258.047.009-24.056h-7.237v-.485Z" transform="translate(-537.883 -275.505)" fill="#c58675"/>
        <path id="Path_13" data-name="Path 13" d="M602.57,275.5v24.5l-2.218-.029.006-14.25a8.552,8.552,0,0,1-5.282,2.573,17.117,17.117,0,0,1-2.81-.2,9.142,9.142,0,0,0-3.907.049,5.772,5.772,0,0,0-3.187,2.319v9.539H583.9l.007-24.5h1.264v14.714a5.7,5.7,0,0,1,3.039-2.918,9.406,9.406,0,0,1,4.067-.062,17.072,17.072,0,0,0,2.748.2,8.633,8.633,0,0,0,5.333-1.956V275.5Z" transform="translate(-556.982 -275.504)" fill="#c58675"/>
        <path id="Path_14" data-name="Path 14" d="M651.793,276.785H640.281a.817.817,0,0,0-.813.814v21.055a.9.9,0,0,0,.9.9h11.424v.784l-14.551.022.015-24.06h14.536Zm-12.03,11.028h7.246v1.723a17.254,17.254,0,0,0-3.623-1.187C642.144,288.064,639.763,287.813,639.763,287.813Z" transform="translate(-579.12 -275.835)" fill="#c58675"/>
      </g>
    </g>
    <g id="Group_9" data-name="Group 9" transform="translate(296.564 286.556)">
      <g id="Group_7" data-name="Group 7" transform="translate(0 0)">
        <path id="Path_15" data-name="Path 15" d="M407.623,402.035H296.564V294.4H430.286v1.755H298.319V400.28h109.3Z" transform="translate(-296.564 -294.398)" fill="#c58675"/>
      </g>
      <g id="Group_8" data-name="Group 8" transform="translate(221.278 0)">
        <path id="Path_16" data-name="Path 16" d="M808.56,402.035H697.5V400.28h109.3V296.153H674.839V294.4H808.56Z" transform="translate(-674.839 -294.398)" fill="#c58675"/>
      </g>
    </g>
  </g>
</svg>
